<svg id="Layer_1" data-name="Layer 1" xmlns="http://www.w3.org/2000/svg" width="500" height="300" viewBox="0 0 500 300"><defs><style>.cls-1,.cls-4{fill:#b5c7eb;}.cls-2,.cls-3{fill:none;}.cls-2,.cls-3,.cls-4{stroke:#b5c7eb;}.cls-2,.cls-3,.cls-4,.cls-6,.cls-7{stroke-miterlimit:10;stroke-width:2px;}.cls-3,.cls-4,.cls-6,.cls-7{stroke-linecap:round;}.cls-5,.cls-6{fill:#2287c9;}.cls-6{stroke:#2287c9;}.cls-7{fill:#fff;stroke:#fff;}</style></defs><title>Artboard 1</title><path class="cls-1" d="M379,56H133a6,6,0,0,0-6,6v57.9h2V62a4,4,0,0,1,4-4H379a4,4,0,0,1,4,4V163.3l2-.3V62A6,6,0,0,0,379,56Z"/><path class="cls-1" d="M171.2,198c0,.7-.1,1.3-.1,2H369.9a11,11,0,0,1-.2-1.8V198Z"/><path class="cls-1" d="M395.5,53.9V163.2h2V53.9a10.5,10.5,0,0,0-10.4-10.4H125.9a10.5,10.5,0,0,0-10.4,10.4v65.7h2V53.9a8.5,8.5,0,0,1,8.4-8.4H387.1A8.5,8.5,0,0,1,395.5,53.9Z"/><path class="cls-1" d="M170.8,226.5v.4a4.3,4.3,0,0,1,0,1.6H370.1a1.7,1.7,0,0,1-.1-.7v-1.3Z"/><path class="cls-2" d="M423,163H378c-4.4,0-8,4-8,8.8v88.4c0,4.8,3.6,8.8,8,8.8h45c4.4,0,8-4,8-8.8V171.8C431,167,427.4,163,423,163Zm-46,89V175h47v77Z"/><circle class="cls-1" cx="400.6" cy="260.5" r="4.5"/><path class="cls-1" d="M417.5,166.8h.1a2,2,0,1,1-2,2A1.9,1.9,0,0,1,417.5,166.8Z"/><path class="cls-1" d="M397.8,167.5h6.4a1.5,1.5,0,1,1,0,3h-6.4a1.5,1.5,0,1,1,0-3Z"/><rect class="cls-2" x="61" y="120" width="110" height="149" rx="11.3"/><line class="cls-3" x1="36" y1="269" x2="468" y2="269"/><rect class="cls-2" x="70" y="128" width="92" height="123" rx="5.6"/><circle class="cls-1" cx="116" cy="260" r="5.5"/><line class="cls-4" x1="82" y1="240" x2="98" y2="240"/><line class="cls-4" x1="82" y1="232" x2="131" y2="232"/><line class="cls-4" x1="82" y1="224" x2="110" y2="224"/><line class="cls-4" x1="403" y1="199" x2="417" y2="199"/><line class="cls-4" x1="395" y1="191" x2="417" y2="191"/><line class="cls-4" x1="410" y1="183" x2="417" y2="183"/><line class="cls-4" x1="194" y1="82" x2="266" y2="82"/><line class="cls-4" x1="170" y1="103" x2="266" y2="103"/><line class="cls-4" x1="193" y1="124" x2="266" y2="124"/><line class="cls-4" x1="170" y1="82" x2="181" y2="82"/><line class="cls-4" x1="193" y1="145" x2="266" y2="145"/><line class="cls-4" x1="231" y1="166" x2="266" y2="166"/><line class="cls-4" x1="193" y1="166" x2="217" y2="166"/><circle class="cls-5" cx="325.5" cy="123.5" r="43.5"/><line class="cls-6" x1="41" y1="125" x2="52" y2="125"/><line class="cls-6" x1="65" y1="113" x2="65" y2="102"/><line class="cls-6" x1="55.9" y1="116.4" x2="48.1" y2="108.6"/><line class="cls-6" x1="422" y1="51" x2="411" y2="51"/><line class="cls-6" x1="394" y1="32" x2="394" y2="21"/><line class="cls-6" x1="406.1" y1="38.4" x2="413.9" y2="30.6"/><path class="cls-1" d="M302,259.2c-8.2,0-15.7-13.6-18.2-31.8h-2.1c2.7,19.6,10.9,33.9,20.3,33.9a3.3,3.3,0,0,1,0,6.5H213a3.3,3.3,0,0,1,0-6.5c9.4,0,17.7-14.4,20.3-34.1h-2c-2.5,18.3-10.1,32.1-18.3,32.1a5.3,5.3,0,0,0,0,10.5h89a5.3,5.3,0,0,0,0-10.5Z"/><rect class="cls-5" x="69" y="127" width="94" height="86" rx="5.6"/><rect class="cls-5" x="376" y="207" width="49" height="46"/><rect class="cls-5" x="69" y="198" width="94" height="15"/><line class="cls-7" x1="95.8" y1="147.8" x2="138.2" y2="190.2"/><line class="cls-7" x1="138.2" y1="147.8" x2="95.8" y2="190.2"/><line class="cls-7" x1="390" y1="219" x2="412" y2="241"/><line class="cls-7" x1="412" y1="219" x2="390" y2="241"/><line class="cls-7" x1="307" y1="104" x2="344" y2="141"/><line class="cls-7" x1="344" y1="104" x2="307" y2="141"/></svg>