<svg id="Layer_1" data-name="Layer 1" xmlns="http://www.w3.org/2000/svg" width="500" height="300" viewBox="0 0 500 300"><defs><style>.cls-1{fill:none;}.cls-1,.cls-2,.cls-5{stroke:#b5c7eb;}.cls-1,.cls-2,.cls-4,.cls-5,.cls-7{stroke-miterlimit:10;}.cls-1,.cls-2,.cls-4,.cls-7{stroke-width:2px;}.cls-2,.cls-5,.cls-6{fill:#b5c7eb;}.cls-2,.cls-4,.cls-7{stroke-linecap:round;}.cls-3,.cls-4{fill:#2287c9;}.cls-4{stroke:#2287c9;}.cls-7{fill:#fff;stroke:#fff;}</style></defs><title>Artboard 1 copy</title><rect class="cls-1" x="75.9" y="132.9" width="164.7" height="91.34" rx="5" transform="translate(316.5 357.1) rotate(-180)"/><rect class="cls-1" x="67.9" y="124.8" width="180.1" height="117.71" rx="9.4" transform="translate(315.9 367.4) rotate(-180)"/><line class="cls-1" x1="41" y1="269" x2="468" y2="269"/><line class="cls-2" x1="198.2" y1="149" x2="151.8" y2="149"/><line class="cls-2" x1="213.6" y1="162.5" x2="151.8" y2="162.5"/><line class="cls-2" x1="198.8" y1="176" x2="151.8" y2="176"/><line class="cls-2" x1="213.6" y1="149" x2="206.5" y2="149"/><line class="cls-2" x1="198.8" y1="189.5" x2="151.8" y2="189.5"/><line class="cls-2" x1="174.4" y1="203" x2="151.8" y2="203"/><line class="cls-2" x1="198.8" y1="203" x2="183.4" y2="203"/><circle class="cls-3" cx="113.6" cy="175.7" r="28"/><line class="cls-4" x1="51.5" y1="129" x2="58.6" y2="129"/><line class="cls-4" x1="69.5" y1="116.8" x2="69.5" y2="109.7"/><line class="cls-4" x1="61.7" y1="120.9" x2="56.7" y2="115.9"/><path class="cls-5" d="M128.7,262.9c5.3,0,10.1-8.7,11.7-20.4h1.3c-1.7,12.6-7,21.8-13,21.8a2.1,2.1,0,0,0,0,4.2H186a2.1,2.1,0,0,0,0-4.2c-6.1,0-11.4-9.2-13.1-21.9h1.3c1.6,11.8,6.4,20.6,11.8,20.6a3.3,3.3,0,0,1,3.2,3.4,3.3,3.3,0,0,1-3.2,3.4H128.7a3.4,3.4,0,0,1-3.3-3.4A3.4,3.4,0,0,1,128.7,262.9Z"/><rect class="cls-1" x="276" y="41" width="147" height="38" rx="5.5"/><line class="cls-2" x1="361" y1="54" x2="361" y2="67"/><line class="cls-2" x1="372" y1="54" x2="372" y2="67"/><line class="cls-2" x1="384" y1="54" x2="384" y2="67"/><line class="cls-2" x1="395" y1="54" x2="395" y2="67"/><line class="cls-2" x1="407" y1="54" x2="407" y2="67"/><circle class="cls-6" cx="297.5" cy="60.5" r="6.5"/><rect class="cls-1" x="276" y="79" width="147" height="38" rx="5.5"/><line class="cls-2" x1="361" y1="92" x2="361" y2="105"/><line class="cls-2" x1="372" y1="92" x2="372" y2="105"/><line class="cls-2" x1="384" y1="92" x2="384" y2="105"/><line class="cls-2" x1="395" y1="92" x2="395" y2="105"/><line class="cls-2" x1="407" y1="92" x2="407" y2="105"/><circle class="cls-6" cx="297.5" cy="98.5" r="6.5"/><rect class="cls-1" x="276" y="117" width="147" height="38" rx="5.5"/><line class="cls-2" x1="361" y1="130" x2="361" y2="143"/><line class="cls-2" x1="372" y1="130" x2="372" y2="143"/><line class="cls-2" x1="384" y1="130" x2="384" y2="143"/><line class="cls-2" x1="395" y1="130" x2="395" y2="143"/><line class="cls-2" x1="407" y1="130" x2="407" y2="143"/><circle class="cls-6" cx="297.5" cy="136.5" r="6.5"/><rect class="cls-1" x="276" y="155" width="147" height="38" rx="5.5"/><line class="cls-2" x1="361" y1="168" x2="361" y2="181"/><line class="cls-2" x1="372" y1="168" x2="372" y2="181"/><line class="cls-2" x1="384" y1="168" x2="384" y2="181"/><line class="cls-2" x1="395" y1="168" x2="395" y2="181"/><line class="cls-2" x1="407" y1="168" x2="407" y2="181"/><circle class="cls-6" cx="297.5" cy="174.5" r="6.5"/><rect class="cls-1" x="276" y="193" width="147" height="38" rx="5.5"/><line class="cls-2" x1="361" y1="206" x2="361" y2="219"/><line class="cls-2" x1="372" y1="206" x2="372" y2="219"/><line class="cls-2" x1="384" y1="206" x2="384" y2="219"/><line class="cls-2" x1="395" y1="206" x2="395" y2="219"/><line class="cls-2" x1="407" y1="206" x2="407" y2="219"/><circle class="cls-3" cx="297.5" cy="211.5" r="6.5"/><rect class="cls-1" x="276" y="231" width="147" height="38" rx="5.5"/><line class="cls-2" x1="361" y1="244" x2="361" y2="257"/><line class="cls-2" x1="372" y1="244" x2="372" y2="257"/><line class="cls-2" x1="384" y1="244" x2="384" y2="257"/><line class="cls-2" x1="395" y1="244" x2="395" y2="257"/><line class="cls-2" x1="407" y1="244" x2="407" y2="257"/><circle class="cls-6" cx="297.5" cy="250.5" r="6.5"/><circle class="cls-3" cx="322.5" cy="211.5" r="6.5"/><line class="cls-2" x1="198" y1="69" x2="208" y2="69"/><line class="cls-2" x1="216" y1="69" x2="226" y2="69"/><line class="cls-2" x1="234" y1="69" x2="244" y2="69"/><line class="cls-2" x1="252" y1="69" x2="262" y2="69"/><path class="cls-6" d="M276,68h-5a1,1,0,0,0,0,2h5.1A4.5,4.5,0,0,1,276,68Z"/><line class="cls-2" x1="172" y1="106" x2="172" y2="96"/><line class="cls-2" x1="172" y1="124" x2="172" y2="114"/><rect class="cls-3" x="155.9" y="54" width="31.1" height="31.11" rx="4.8" transform="translate(1.1 141.6) rotate(-45)"/><line class="cls-7" x1="172" y1="72" x2="172" y2="60"/><line class="cls-7" x1="172" y1="79" x2="172" y2="79"/><line class="cls-7" x1="100" y1="162" x2="127" y2="189"/><line class="cls-7" x1="127" y1="162" x2="100" y2="189"/></svg>